<svg width="75" height="60" viewBox="0 0 75 60" fill="none" xmlns="http://www.w3.org/2000/svg">
<path d="M69.6667 0H6.33333C2.83681 0 0 2.92746 0 6.53571V54.4643C0 58.0725 2.83681 61 6.33333 61H69.6667C73.1632 61 76 58.0725 76 54.4643V6.53571C76 2.92746 73.1632 0 69.6667 0ZM23.2222 13.0714C27.8799 13.0714 31.6667 16.9792 31.6667 21.7857C31.6667 26.5922 27.8799 30.5 23.2222 30.5C18.5646 30.5 14.7778 26.5922 14.7778 21.7857C14.7778 16.9792 18.5646 13.0714 23.2222 13.0714ZM38 45.3143C38 46.7576 36.6806 47.9286 35.0444 47.9286H11.4C9.76389 47.9286 8.44444 46.7576 8.44444 45.3143V42.7C8.44444 38.3701 12.416 34.8571 17.3111 34.8571H17.9708C19.5938 35.5516 21.3618 35.9464 23.2222 35.9464C25.0826 35.9464 26.8639 35.5516 28.4736 34.8571H29.1333C34.0285 34.8571 38 38.3701 38 42.7V45.3143ZM67.5556 38.125C67.5556 38.7241 67.0806 39.2143 66.5 39.2143H47.5C46.9194 39.2143 46.4444 38.7241 46.4444 38.125V35.9464C46.4444 35.3473 46.9194 34.8571 47.5 34.8571H66.5C67.0806 34.8571 67.5556 35.3473 67.5556 35.9464V38.125ZM67.5556 29.4107C67.5556 30.0098 67.0806 30.5 66.5 30.5H47.5C46.9194 30.5 46.4444 30.0098 46.4444 29.4107V27.2321C46.4444 26.633 46.9194 26.1429 47.5 26.1429H66.5C67.0806 26.1429 67.5556 26.633 67.5556 27.2321V29.4107ZM67.5556 20.6964C67.5556 21.2955 67.0806 21.7857 66.5 21.7857H47.5C46.9194 21.7857 46.4444 21.2955 46.4444 20.6964V18.5179C46.4444 17.9188 46.9194 17.4286 47.5 17.4286H66.5C67.0806 17.4286 67.5556 17.9188 67.5556 18.5179V20.6964Z" fill="#999999"/>
</svg>
