<svg width="84" height="110" viewBox="0 0 84 110" fill="none" xmlns="http://www.w3.org/2000/svg">
<g filter="url(#filter0_d)">
<path d="M53.7144 92.2727L64.7168 79.7655C65.8803 78.4447 65.8044 76.3422 64.5145 75.1293L41.5991 53.646L64.5145 32.1627C65.8044 30.9498 65.9056 28.8473 64.7168 27.5265L53.7144 15.0193C52.5762 13.7254 50.654 13.6446 49.4146 14.8845L12.9675 51.2739C11.6775 52.5408 11.6775 54.7242 12.9675 55.9911L49.4146 92.4075C50.654 93.6474 52.5762 93.5935 53.7144 92.2727Z" fill="#A32DDF"/>
<path d="M53.3356 91.9463L53.339 91.9425L64.3414 79.4353L64.3416 79.435C65.3303 78.3127 65.2615 76.518 64.172 75.4935L41.2571 54.0108L40.868 53.646L41.2571 53.2812L64.172 31.7985L53.3356 91.9463ZM53.3356 91.9463C52.3915 93.042 50.8066 93.0929 49.7682 92.054L49.768 92.0538L13.3209 55.6374L13.3178 55.6344C12.2274 54.5634 12.2274 52.7016 13.3178 51.6307L13.3207 51.6278L49.7679 15.2383L49.7682 15.238C50.8015 14.2042 52.3897 14.2704 53.339 15.3495L64.3414 27.8567L64.3414 27.8567M53.3356 91.9463L64.3414 27.8567M64.3414 27.8567L64.3452 27.861M64.3414 27.8567L64.3452 27.861M64.3452 27.861C65.3498 28.9772 65.2662 30.769 64.1725 31.798L64.3452 27.861Z" stroke="#202020"/>
</g>
<defs>
<filter id="filter0_d" x="0" y="0" width="83.5487" height="109.302" filterUnits="userSpaceOnUse" color-interpolation-filters="sRGB">
<feFlood flood-opacity="0" result="BackgroundImageFix"/>
<feColorMatrix in="SourceAlpha" type="matrix" values="0 0 0 0 0 0 0 0 0 0 0 0 0 0 0 0 0 0 127 0"/>
<feOffset dx="3" dy="1"/>
<feGaussianBlur stdDeviation="7.5"/>
<feColorMatrix type="matrix" values="0 0 0 0 0 0 0 0 0 0 0 0 0 0 0 0 0 0 1 0"/>
<feBlend mode="normal" in2="BackgroundImageFix" result="effect1_dropShadow"/>
<feBlend mode="normal" in="SourceGraphic" in2="effect1_dropShadow" result="shape"/>
</filter>
</defs>
</svg>
