<svg width="84" height="110" viewBox="0 0 84 110" fill="none" xmlns="http://www.w3.org/2000/svg">
<g filter="url(#filter0_d)">
<path d="M34.1341 92.4509L70.5812 56.0345C71.8712 54.7676 71.8712 52.5843 70.5812 51.3174L34.1341 14.874C32.92 13.661 30.9977 13.7149 29.8343 15.0088L18.8318 27.516C17.6683 28.8368 17.7442 30.9393 19.0342 32.1523L41.9496 53.6625L19.0342 75.1457C17.7442 76.3587 17.6431 78.4612 18.8318 79.782L29.8343 92.2892C30.9724 93.61 32.8947 93.6639 34.1341 92.4509Z" fill="#A32DDF"/>
<path d="M70.2309 55.6778L70.2278 55.6808L33.7843 92.0936C33.7837 92.0942 33.7832 92.0947 33.7826 92.0953C32.744 93.11 31.1573 93.0586 30.2131 91.9628L30.2097 91.9589L19.2073 79.4517L19.2035 79.4475C18.1987 78.3311 18.2825 76.5389 19.3767 75.51L42.2916 54.0272L42.6804 53.6627L42.2918 53.2979L19.3767 31.788C18.2872 30.7635 18.2184 28.9688 19.207 27.8465L19.2072 27.8462L30.2078 15.3411C31.1822 14.2596 32.7723 14.2203 33.7807 15.2277L70.2277 51.671L70.2309 51.6741C71.3213 52.745 71.3213 54.6069 70.2309 55.6778Z" stroke="#202020"/>
</g>
<defs>
<filter id="filter0_d" x="0" y="0" width="83.5487" height="109.322" filterUnits="userSpaceOnUse" color-interpolation-filters="sRGB">
<feFlood flood-opacity="0" result="BackgroundImageFix"/>
<feColorMatrix in="SourceAlpha" type="matrix" values="0 0 0 0 0 0 0 0 0 0 0 0 0 0 0 0 0 0 127 0"/>
<feOffset dx="-3" dy="1"/>
<feGaussianBlur stdDeviation="7.5"/>
<feColorMatrix type="matrix" values="0 0 0 0 0 0 0 0 0 0 0 0 0 0 0 0 0 0 1 0"/>
<feBlend mode="normal" in2="BackgroundImageFix" result="effect1_dropShadow"/>
<feBlend mode="normal" in="SourceGraphic" in2="effect1_dropShadow" result="shape"/>
</filter>
</defs>
</svg>
