<svg width="48" height="48" viewBox="0 0 48 48" fill="none" xmlns="http://www.w3.org/2000/svg">
<path d="M20.4084 3.21502L22.7867 0.774903C23.7938 -0.258301 25.4222 -0.258301 26.4185 0.774903L47.2447 22.1314C48.2518 23.1646 48.2518 24.8354 47.2447 25.8576L26.4185 47.2251C25.4114 48.2583 23.7831 48.2583 22.7867 47.2251L20.4084 44.785C19.3907 43.7408 19.4121 42.0371 20.4513 41.0149L33.3606 28.3966H2.57114C1.1463 28.3966 0 27.2205 0 25.7586V22.2414C0 20.7795 1.1463 19.6034 2.57114 19.6034H33.3606L20.4513 6.98512C19.4014 5.9629 19.38 4.25922 20.4084 3.21502Z" fill="#BBBBBB"/>
</svg>
