<svg width="272" height="222" viewBox="0 0 272 222" fill="none" xmlns="http://www.w3.org/2000/svg">
<g filter="url(#filter0_d)">
<path d="M120.587 206.812L97.7125 200.175C95.3125 199.5 93.9625 196.987 94.6375 194.587L145.825 18.2625C146.5 15.8625 149.012 14.5125 151.412 15.1875L174.287 21.825C176.687 22.5 178.037 25.0125 177.362 27.4125L126.175 203.737C125.462 206.137 122.987 207.525 120.587 206.812ZM77.8375 164.737L94.15 147.337C95.875 145.5 95.7625 142.575 93.85 140.887L59.875 111L93.85 81.1125C95.7625 79.425 95.9125 76.5 94.15 74.6625L77.8375 57.2625C76.15 55.4625 73.3 55.35 71.4625 57.075L17.425 107.7C15.5125 109.462 15.5125 112.5 17.425 114.262L71.4625 164.925C73.3 166.65 76.15 166.575 77.8375 164.737ZM200.537 164.962L254.575 114.3C256.487 112.537 256.487 109.5 254.575 107.737L200.537 57.0375C198.737 55.35 195.887 55.425 194.162 57.225L177.85 74.625C176.125 76.4625 176.237 79.3875 178.15 81.075L212.125 111L178.15 140.887C176.237 142.575 176.087 145.5 177.85 147.337L194.162 164.737C195.85 166.575 198.7 166.65 200.537 164.962Z" fill="#BD3CFF"/>
</g>
<defs>
<filter id="filter0_d" x="0.990601" y="0.013916" width="270.019" height="221.986" filterUnits="userSpaceOnUse" color-interpolation-filters="sRGB">
<feFlood flood-opacity="0" result="BackgroundImageFix"/>
<feColorMatrix in="SourceAlpha" type="matrix" values="0 0 0 0 0 0 0 0 0 0 0 0 0 0 0 0 0 0 127 0"/>
<feOffset/>
<feGaussianBlur stdDeviation="7.5"/>
<feColorMatrix type="matrix" values="0 0 0 0 0 0 0 0 0 0 0 0 0 0 0 0 0 0 1 0"/>
<feBlend mode="normal" in2="BackgroundImageFix" result="effect1_dropShadow"/>
<feBlend mode="normal" in="SourceGraphic" in2="effect1_dropShadow" result="shape"/>
</filter>
</defs>
</svg>
