<svg width="200" height="178" viewBox="0 0 200 178" fill="none" xmlns="http://www.w3.org/2000/svg">
<g filter="url(#filter0_d)">
<path d="M89.7258 157.866L74.477 153.095C72.8771 152.609 71.9772 150.803 72.4271 149.078L106.549 22.3351C106.999 20.6099 108.674 19.6396 110.274 20.1248L125.523 24.8958C127.123 25.381 128.023 27.187 127.573 28.9121L93.4505 155.655C92.9755 157.38 91.3257 158.378 89.7258 157.866ZM61.228 127.622L72.1022 115.115C73.2521 113.794 73.1771 111.691 71.9022 110.478L49.254 88.9952L71.9022 67.5119C73.1771 66.2989 73.2771 64.1964 72.1022 62.8756L61.228 50.3684C60.1031 49.0746 58.2033 48.9937 56.9784 50.2337L20.9562 86.6231C19.6813 87.89 19.6813 90.0734 20.9562 91.3403L56.9784 127.757C58.2033 128.997 60.1031 128.943 61.228 127.622ZM143.022 127.784L179.044 91.3672C180.319 90.1003 180.319 87.917 179.044 86.6501L143.022 50.2067C141.822 48.9937 139.922 49.0476 138.772 50.3415L127.898 62.8487C126.748 64.1695 126.823 66.272 128.098 67.485L150.746 88.9952L128.098 110.478C126.823 111.691 126.723 113.794 127.898 115.115L138.772 127.622C139.897 128.943 141.797 128.997 143.022 127.784Z" fill="#cccccc"/>
</g>
<defs>
<filter id="filter0_d" x="0" y="0" width="200" height="178" filterUnits="userSpaceOnUse" color-interpolation-filters="sRGB">
<feFlood flood-opacity="0" result="BackgroundImageFix"/>
<feColorMatrix in="SourceAlpha" type="matrix" values="0 0 0 0 0 0 0 0 0 0 0 0 0 0 0 0 0 0 127 0"/>
<feOffset/>
<feGaussianBlur stdDeviation="10"/>
<feColorMatrix type="matrix" values="0 0 0 0 0 0 0 0 0 0 0 0 0 0 0 0 0 0 1 0"/>
<feBlend mode="normal" in2="BackgroundImageFix" result="effect1_dropShadow"/>
<feBlend mode="normal" in="SourceGraphic" in2="effect1_dropShadow" result="shape"/>
</filter>
</defs>
</svg>
