<svg width="76" height="61" viewBox="0 0 76 61" fill="none" xmlns="http://www.w3.org/2000/svg">
<path d="M74.5602 20.1427C75.1391 19.6503 76 20.1109 76 20.8893V53.375C76 57.5846 72.8086 61 68.875 61H7.125C3.19141 61 0 57.5846 0 53.375V20.9052C0 20.1109 0.846094 19.6661 1.43984 20.1586C4.76484 22.9227 9.17344 26.4333 24.3141 38.2044C27.4461 40.6508 32.7305 45.7977 38 45.7659C43.2992 45.8135 48.6875 40.5555 51.7008 38.2044C66.8414 26.4333 71.2352 22.9068 74.5602 20.1427ZM38 40.6667C41.4437 40.7302 46.4016 36.0281 48.8953 34.0901C68.593 18.7924 70.0922 17.4581 74.6344 13.6456C75.4953 12.9307 76 11.8188 76 10.6432V7.625C76 3.41536 72.8086 0 68.875 0H7.125C3.19141 0 0 3.41536 0 7.625V10.6432C0 11.8188 0.504687 12.9148 1.36563 13.6456C5.90781 17.4422 7.40703 18.7924 27.1047 34.0901C29.5984 36.0281 34.5563 40.7302 38 40.6667Z" fill="#999999"/>
</svg>
