<svg width="40" height="61" viewBox="0 0 40 61" fill="none" xmlns="http://www.w3.org/2000/svg">
<path d="M10.002 60.9999C15.5209 60.9999 20 56.4452 20 50.8333V40.6666H10.002C4.48313 40.6666 0.00402832 45.2213 0.00402832 50.8333C0.00402832 56.4452 4.48313 60.9999 10.002 60.9999Z" fill="#AAAAAA"/>
<path d="M0.00402832 30.5C0.00402832 24.888 4.48313 20.3334 10.002 20.3334H20V40.6666H10.002C4.48313 40.6666 0.00402832 36.112 0.00402832 30.5Z" fill="#999999"/>
<path d="M0.00402832 10.1667C0.00402832 4.55467 4.48313 0 10.002 0H20V20.3333H10.002C4.48313 20.3333 0.00402832 15.7787 0.00402832 10.1667Z" fill="#888888"/>
<path d="M20 0H29.998C35.5169 0 39.996 4.55467 39.996 10.1667C39.996 15.7787 35.5169 20.3333 29.998 20.3333H20V0Z" fill="#777777"/>
<path d="M39.996 30.5C39.996 36.112 35.5169 40.6666 29.998 40.6666C24.4791 40.6666 20 36.112 20 30.5C20 24.888 24.4791 20.3334 29.998 20.3334C35.5169 20.3334 39.996 24.888 39.996 30.5Z" fill="#666666"/>
</svg>
