<svg width="60" height="60" viewBox="0 0 60 60" fill="none" xmlns="http://www.w3.org/2000/svg">
<path d="M54.4643 0H6.53571C2.92746 0 0 2.92746 0 6.53571V54.4643C0 58.0725 2.92746 61 6.53571 61H54.4643C58.0725 61 61 58.0725 61 54.4643V6.53571C61 2.92746 58.0725 0 54.4643 0ZM37.7574 52.2449C36.6136 52.4491 36.1915 51.7411 36.1915 51.1556C36.1915 50.4203 36.2188 46.6623 36.2188 43.6259C36.2188 41.5018 35.5107 40.1538 34.6801 39.4458C39.7181 38.8875 45.0284 38.1931 45.0284 29.4924C45.0284 27.0143 44.1433 25.7752 42.7 24.1821C42.9315 23.5967 43.7076 21.1866 42.4685 18.0549C40.5759 17.4694 36.246 20.4922 36.246 20.4922C34.4487 19.9884 32.5016 19.7297 30.5817 19.7297C28.6618 19.7297 26.7147 19.9884 24.9174 20.4922C24.9174 20.4922 20.5875 17.4694 18.6949 18.0549C17.4558 21.173 18.2183 23.583 18.4634 24.1821C17.0201 25.7752 16.3393 27.0143 16.3393 29.4924C16.3393 38.1522 21.4181 38.8875 26.456 39.4458C25.8025 40.0313 25.217 41.0388 25.0127 42.4821C23.7192 43.0676 20.4105 44.0752 18.4362 40.5895C17.1971 38.4382 14.9641 38.2612 14.9641 38.2612C12.7583 38.2339 14.8143 39.65 14.8143 39.65C16.2848 40.3308 17.3196 42.9451 17.3196 42.9451C18.6404 46.9891 24.9583 45.6275 24.9583 45.6275C24.9583 47.5201 24.9855 50.5973 24.9855 51.1556C24.9855 51.7411 24.577 52.4491 23.4196 52.2449C14.433 49.2357 8.14241 40.6848 8.14241 30.6906C8.14241 18.1911 17.7009 8.70067 30.2004 8.70067C42.7 8.70067 52.8304 18.1911 52.8304 30.6906C52.844 40.6848 46.744 49.2493 37.7574 52.2449ZM24.4 43.9254C24.1413 43.9799 23.8962 43.871 23.869 43.694C23.8417 43.4897 24.0188 43.3127 24.2775 43.2583C24.5362 43.231 24.7812 43.34 24.8085 43.517C24.8493 43.694 24.6723 43.871 24.4 43.9254ZM23.1065 43.8029C23.1065 43.9799 22.9022 44.1297 22.6299 44.1297C22.3304 44.1569 22.1261 44.0071 22.1261 43.8029C22.1261 43.6259 22.3304 43.4761 22.6027 43.4761C22.8614 43.4489 23.1065 43.5987 23.1065 43.8029ZM21.2411 43.6531C21.1866 43.8301 20.9143 43.9118 20.6828 43.8301C20.4241 43.7757 20.2471 43.5714 20.3016 43.3944C20.356 43.2174 20.6283 43.1357 20.8598 43.1902C21.1321 43.2719 21.3092 43.4761 21.2411 43.6531ZM19.5663 42.9179C19.4437 43.0676 19.185 43.0404 18.9808 42.8362C18.7766 42.6592 18.7221 42.4004 18.8583 42.2779C18.9808 42.1281 19.2395 42.1554 19.4438 42.3596C19.6208 42.5366 19.6888 42.8089 19.5663 42.9179ZM18.3272 41.6788C18.2047 41.7605 17.9732 41.6788 17.8234 41.4746C17.6737 41.2703 17.6737 41.0388 17.8234 40.9435C17.9732 40.821 18.2047 40.9163 18.3272 41.1205C18.477 41.3248 18.477 41.5699 18.3272 41.6788V41.6788ZM17.4422 40.358C17.3196 40.4806 17.1154 40.4125 16.9656 40.2763C16.8158 40.0993 16.7886 39.8951 16.9112 39.7998C17.0337 39.6772 17.2379 39.7453 17.3877 39.8815C17.5375 40.0585 17.5647 40.2627 17.4422 40.358ZM16.5299 39.3504C16.4754 39.473 16.2984 39.5002 16.1487 39.4049C15.9717 39.3232 15.89 39.1734 15.9444 39.0509C15.9989 38.9692 16.1487 38.9283 16.3257 38.9964C16.5027 39.0917 16.5844 39.2415 16.5299 39.3504Z" fill="#999999"/>
</svg>