<svg width="48" height="48" viewBox="0 0 48 48" fill="none" xmlns="http://www.w3.org/2000/svg">
<path d="M24 0.75C10.7448 0.75 0 11.1591 0 24C0 36.8409 10.7448 47.25 24 47.25C37.2552 47.25 48 36.8409 48 24C48 11.1591 37.2552 0.75 24 0.75ZM31.9635 34.275C31.5861 34.6388 31.1903 35.0203 30.869 35.3325C30.5797 35.6138 30.3755 35.9606 30.2719 36.3366C30.1258 36.8672 30.0077 37.4034 29.8103 37.9181L28.1274 42.3103C26.7958 42.5916 25.4177 42.75 24 42.75V40.1831C24.1635 39 23.2606 36.7837 21.81 35.3784C21.2294 34.8159 20.9032 34.0528 20.9032 33.2569V30.2559C20.9032 29.1647 20.2964 28.1616 19.3103 27.6338C17.9197 26.8884 15.9416 25.8469 14.5868 25.1859C13.4758 24.6441 12.4481 23.9541 11.5239 23.1469L11.4465 23.0794C10.7855 22.5014 10.1988 21.8486 9.69871 21.135C8.79097 19.8441 7.31226 17.7206 6.35129 16.3406C8.33226 12.075 11.9023 8.64938 16.3384 6.78844L18.6619 7.91437C19.6916 8.41313 20.9032 7.68844 20.9032 6.57281V5.51344C21.6765 5.3925 22.4632 5.31562 23.2635 5.28656L26.0023 7.93969C26.6071 8.52563 26.6071 9.47531 26.0023 10.0612L25.5484 10.5L24.5477 11.4694C24.2458 11.7619 24.2458 12.2372 24.5477 12.5297L25.0016 12.9694C25.3035 13.2619 25.3035 13.7372 25.0016 14.0297L24.2274 14.7797C24.0821 14.9202 23.885 14.9991 23.6797 14.9991H22.8097C22.6084 14.9991 22.4148 15.075 22.2697 15.2119L21.3097 16.1166C21.192 16.2276 21.1138 16.3719 21.0863 16.5288C21.0588 16.6857 21.0835 16.847 21.1568 16.9894L22.6655 19.9134C22.9229 20.4122 22.5484 20.9991 21.9735 20.9991H21.4277C21.241 20.9991 21.061 20.9334 20.9206 20.8153L20.0226 20.0597C19.8194 19.8889 19.5737 19.7723 19.3099 19.7213C19.046 19.6704 18.773 19.6868 18.5177 19.7691L15.5013 20.7431C15.271 20.8175 15.0707 20.9602 14.9288 21.151C14.7869 21.3418 14.7106 21.5711 14.7106 21.8063C14.7106 22.2309 14.9584 22.6181 15.3503 22.8084L16.4226 23.3278C17.3332 23.7694 18.3377 23.9991 19.3558 23.9991C20.3739 23.9991 21.5419 26.5575 22.4526 26.9991H28.9123C29.7339 26.9991 30.5206 27.315 31.1023 27.8775L32.4271 29.1609C32.9806 29.6973 33.2914 30.4247 33.2913 31.1831C33.2911 31.7578 33.1737 32.3268 32.9458 32.8574C32.718 33.388 32.3842 33.8698 31.9635 34.275ZM40.3548 25.7109C39.7945 25.575 39.3058 25.2422 38.9855 24.7762L37.2455 22.2478C36.9909 21.8784 36.855 21.4442 36.855 21C36.855 20.5558 36.9909 20.1216 37.2455 19.7522L39.1413 16.9978C39.3658 16.6725 39.6735 16.4081 40.0355 16.2338L41.2916 15.6253C42.6 18.1491 43.3548 20.9878 43.3548 24C43.3548 24.8128 43.2832 25.6088 43.1787 26.3944L40.3548 25.7109Z" fill="#999999"/>
</svg>
