<svg width="60" height="60" viewBox="0 0 60 60" fill="none" xmlns="http://www.w3.org/2000/svg">
<path d="M59.6937 44.9868C59.2576 46.5132 59.2576 51.8504 59.6937 53.7566C60.5639 54.518 60.9993 55.2806 61 56.0445V57.9507C61 59.857 59.2576 61 57.5151 61H13.0714C5.66343 61 0 56.0445 0 49.5625V11.4375C0 4.95551 5.66343 0 13.0714 0H57.5151C59.6937 0 61 1.14301 61 3.04926V42.7007C61 43.8438 60.5646 44.6058 59.6937 44.9868ZM51.8496 45.75H13.0714C10.8929 45.75 8.71429 47.2746 8.71429 49.5625C8.71429 51.8504 10.4567 53.375 13.0714 53.375H51.8496V45.75ZM17.4307 20.9706C17.4307 21.032 17.4498 21.0879 17.4498 21.1493L22.5027 25.0177C22.6692 25.1454 22.7873 25.3145 22.8412 25.5024C22.8951 25.6904 22.8823 25.8882 22.8044 26.0696C22.7265 26.251 22.5873 26.4073 22.4053 26.5177C22.2233 26.6281 22.0072 26.6873 21.7857 26.6875H21.7836C21.5229 26.6759 21.273 26.5933 21.0687 26.4511L17.8562 23.9919C19.4284 29.8987 25.4493 34.3125 32.6786 34.3125C39.9079 34.3125 45.9287 29.8987 47.5031 23.9919L44.2905 26.4511C44.0917 26.6023 43.8371 26.6856 43.5736 26.6856H43.5714C43.2618 26.6707 42.9698 26.5552 42.7523 26.3617C42.5901 26.1822 42.4957 25.9629 42.4821 25.7344C42.4992 25.4631 42.6321 25.2073 42.8545 25.0177L47.9073 21.1493C47.9094 21.086 47.9286 21.0302 47.9286 20.9688C47.9286 19.6526 47.6435 18.4054 47.2393 17.2047L44.3437 19.7364C44.1394 19.9153 43.8623 20.0159 43.5733 20.0161C43.2843 20.0162 43.007 19.9159 42.8025 19.7372C42.598 19.5585 42.4829 19.316 42.4827 19.0631C42.4825 18.8102 42.5971 18.5676 42.8013 18.3886L46.3989 15.2426C45.0379 12.7627 42.8328 10.7123 40.0866 9.37302C41.2027 10.9341 41.6243 12.7996 41.2713 14.6149C40.9182 16.4302 39.8152 18.0687 38.1718 19.2189C39.1152 20.0743 39.7793 21.1353 40.0952 22.2915C40.4111 23.4477 40.3671 24.6568 39.9679 25.7931C39.5687 26.9294 38.8289 27.9513 37.8253 28.7526C36.8217 29.5538 35.5911 30.1052 34.2614 30.3492L34.0678 26.2649L35.7932 27.2925C35.8836 27.3463 35.9904 27.3749 36.0996 27.3744C36.1959 27.375 36.2905 27.3531 36.3739 27.311C36.4573 27.2689 36.5264 27.2082 36.574 27.135C36.6217 27.0618 36.6462 26.9789 36.6451 26.8947C36.644 26.8105 36.6172 26.728 36.5677 26.6559L35.406 24.9507L37.8442 24.5076C37.9668 24.4852 38.077 24.4265 38.156 24.3414C38.235 24.2563 38.2782 24.15 38.2782 24.0403C38.2782 23.9307 38.235 23.8244 38.156 23.7393C38.077 23.6542 37.9668 23.5955 37.8442 23.5731L35.406 23.13L36.5677 21.4248C36.6172 21.3527 36.644 21.2702 36.6451 21.186C36.6462 21.1018 36.6217 21.0188 36.574 20.9457C36.5264 20.8725 36.4573 20.8118 36.3739 20.7697C36.2905 20.7276 36.1959 20.7057 36.0996 20.7063C35.9914 20.71 35.886 20.7375 35.7932 20.7863L33.8615 21.9368L33.2232 8.55765C33.217 8.43488 33.157 8.31892 33.0555 8.23396C32.954 8.14899 32.819 8.10157 32.6786 8.10157C32.5381 8.10157 32.4031 8.14899 32.3016 8.23396C32.2002 8.31892 32.1401 8.43488 32.1339 8.55765L31.5042 21.7599L29.8703 20.7882C29.7677 20.7273 29.6444 20.6988 29.5208 20.7074C29.3972 20.7161 29.2807 20.7614 29.1905 20.8357C29.1002 20.9101 29.0417 21.0092 29.0245 21.1167C29.0073 21.2241 29.0324 21.3335 29.0958 21.4267L30.2575 23.1319L27.8193 23.575C27.6967 23.5971 27.5866 23.6556 27.5076 23.7406C27.4285 23.8255 27.3853 23.9317 27.3853 24.0413C27.3853 24.1508 27.4285 24.257 27.5076 24.342C27.5866 24.4269 27.6967 24.4854 27.8193 24.5076L30.2575 24.9525L29.0958 26.6559C29.0495 26.731 29.0233 26.8144 29.0193 26.8997C29.0274 27.0291 29.0877 27.1518 29.1895 27.246C29.2907 27.3296 29.4247 27.3762 29.5639 27.3763C29.673 27.3758 29.7795 27.3473 29.8703 27.2944L31.2808 26.4548L31.0957 30.3529C29.7659 30.1084 28.5352 29.5566 27.5317 28.755C26.5281 27.9534 25.7883 26.9312 25.3891 25.7946C24.99 24.6581 24.9461 23.4487 25.2619 22.2923C25.5778 21.1359 26.242 20.0746 27.1853 19.2189C25.5414 18.0685 24.4382 16.4295 24.0855 14.6137C23.7329 12.798 24.1554 10.9321 25.2727 9.37115C22.5263 10.7109 20.3207 12.7611 18.9583 15.2407L22.5559 18.3886C22.7593 18.5675 22.8733 18.8097 22.873 19.062C22.8726 19.3144 22.7579 19.5563 22.554 19.7347C22.35 19.9132 22.0736 20.0135 21.7852 20.0139C21.4968 20.0142 21.22 19.9144 21.0156 19.7364L18.12 17.2028C17.7137 18.4054 17.4286 19.6526 17.4307 20.9706Z" fill="#999999"/>
</svg>
